# xmcd
#
# Track frame offsets: 
#        183
#        15488
#        24908
#        39198
#        72060
#        87023
#        98443
#        111688
#        129780
#        144508
#        154655
#        176553
#        196248
#        208475
#
# Disc length: 2999 seconds
#
# Revision: 1
# Processed by: cddbd v1.5.2PL0 Copyright (c) Steve Scherf et al.
# Submitted via: ExactAudioCopyFreeDBPlugin 1.0
#
DISCID=ac0bb50e
DTITLE=Barrence Whitfield - Savage Tracks
DYEAR=1992
DGENRE=Rhythm and Blues
TTITLE0=Ramblin Rose
TTITLE1=Hole in My Heart
TTITLE2=Rockin Behind the Iron Curtain
TTITLE3=Could You, Would You - Dock of the Bay
TTITLE4=Savage Axe
TTITLE5=Juicy Fruit
TTITLE6=Dr. Knows His Business
TTITLE7=Waitin' for the Moon to Rise
TTITLE8=One After 909
TTITLE9=It's Not Unusual
TTITLE10=Topsy
TTITLE11=Under My Thumb
TTITLE12=Ace of Spades
TTITLE13=Stop Twistin' My Arm
EXTD=
EXTT0=Ramblin Rose
EXTT1=Hole In My Heart
EXTT2=Rockin Behind The Iron Curtain
EXTT3=Could You, Would You - Dock Of The Bay
EXTT4=Savage Axe
EXTT5=Juicy Fruit
EXTT6=Dr. Knows His Business
EXTT7=Waitin' For The Moon To Rise
EXTT8=One After 909
EXTT9=It's Not Unusual
EXTT10=Topsy
EXTT11=Under My Thumb
EXTT12=Ace Of Spades
EXTT13=Stop Twistin' My Arm
PLAYORDER=
